<?xml version="1.0" encoding="UTF-8" standalone="no"?>
<!DOCTYPE svg PUBLIC "-//W3C//DTD SVG 1.1//EN" "http://www.w3.org/Graphics/SVG/1.1/DTD/svg11.dtd">
<svg xmlns="http://www.w3.org/2000/svg" version="1.1" xmlns:xlink="http://www.w3.org/1999/xlink" viewBox="0 0 512 288">

<!-- Copyright 2015 Isaac Gouy -->
<!-- http://benchmarksgame.alioth.debian.org/license.html -->

<g style="stroke: #ccc;" >
<line x1="51" y1="264" x2="511" y2="264" />
<line x1="51" y1="221.57" x2="511" y2="221.57" />
<line x1="51" y1="201.85" x2="511" y2="201.85" />
<line x1="51" y1="175.08" x2="511" y2="175.08" />
<line x1="51" y1="132.65" x2="511" y2="132.65" />
<line x1="51" y1="112.92" x2="511" y2="112.92" />
<line x1="51" y1="86.15" x2="511" y2="86.15" />
<line x1="51" y1="43.73" x2="511" y2="43.73" />
<line x1="51" y1="24" x2="511" y2="24" />
</g>
<g style="text-anchor: end; font-family: Ubuntu,Verdana,sans-serif; font-size: 0.9em;" >
<text x="51" y="262" >1</text>
<text x="51" y="219.57" >3</text>
<text x="51" y="199.85" >5</text>
<text x="51" y="173.08" >10</text>
<text x="51" y="130.65" >30</text>
<text x="51" y="110.92" >50</text>
<text x="51" y="84.15" >100</text>
<text x="51" y="41.73" >300</text>
<text x="51" y="22" ></text>
</g>
<defs>
<linearGradient id="grade" x1="0" y1="0" x2="0" y2="1">
<stop offset="0" style="stop-color: white" stop-opacity="0.6"/>
<stop offset="1" style="stop-color: white" stop-opacity="0.8"/>
</linearGradient>
<mask id="fade">
<rect x="58" y="24" width="452" height="288" fill="url(#grade)"  />
</mask>
<g id="backgroundText" style="text-anchor: end; font-family: Ubuntu,Verdana,sans-serif; font-size: 1em;">
<text x="15" y="0" transform="rotate(270,15,0)" xml:space="preserve">   C gcc   C gcc   C gcc   C gcc   C gcc   C gcc   C gcc</text>
<text x="40" y="0" transform="rotate(270,40,0)" xml:space="preserve">   C++ g++   C++ g++   C++ g++   C++ g++   C++ g++   C++ g++</text>
<text x="65" y="0" transform="rotate(270,65,0)" xml:space="preserve">Rust   Rust   Rust   Rust   Rust   Rust   Rust   Rust   Rust</text>
<text x="90" y="0" transform="rotate(270,90,0)" xml:space="preserve">da 2005 GNAT   Ada 2005 GNAT   Ada 2005 GNAT   Ada 2005 GNAT</text>
<text x="115" y="0" transform="rotate(270,115,0)" xml:space="preserve">ortran Intel   Fortran Intel   Fortran Intel   Fortran Intel</text>
<text x="140" y="0" transform="rotate(270,140,0)" xml:space="preserve">   </text>
<text x="165" y="0" transform="rotate(270,165,0)" xml:space="preserve">Java   Java   Java   Java   Java   Java   Java   Java   Java</text>
<text x="190" y="0" transform="rotate(270,190,0)" xml:space="preserve">   Go   Go   Go   Go   Go   Go   Go   Go   Go   Go   Go   Go</text>
<text x="215" y="0" transform="rotate(270,215,0)" xml:space="preserve">   Swift   Swift   Swift   Swift   Swift   Swift   Swift</text>
<text x="240" y="0" transform="rotate(270,240,0)" xml:space="preserve">Pascal Free Pascal   Pascal Free Pascal   Pascal Free Pascal</text>
<text x="265" y="0" transform="rotate(270,265,0)" xml:space="preserve">   Chapel   Chapel   Chapel   Chapel   Chapel   Chapel</text>
<text x="290" y="0" transform="rotate(270,290,0)" xml:space="preserve">   OCaml   OCaml   OCaml   OCaml   OCaml   OCaml   OCaml</text>
<text x="315" y="0" transform="rotate(270,315,0)" xml:space="preserve">   C# .NET Core   C# .NET Core   C# .NET Core   C# .NET Core</text>
<text x="340" y="0" transform="rotate(270,340,0)" xml:space="preserve">   Scala   Scala   Scala   Scala   Scala   Scala   Scala</text>
<text x="365" y="0" transform="rotate(270,365,0)" xml:space="preserve">   Lisp SBCL   Lisp SBCL   Lisp SBCL   Lisp SBCL   Lisp SBCL</text>
<text x="390" y="0" transform="rotate(270,390,0)" xml:space="preserve">   F# .NET Core   F# .NET Core   F# .NET Core   F# .NET Core</text>
<text x="415" y="0" transform="rotate(270,415,0)" xml:space="preserve">   Node.js   Node.js   Node.js   Node.js   Node.js   Node.js</text>
<text x="440" y="0" transform="rotate(270,440,0)" xml:space="preserve">   Clojure   Clojure   Clojure   Clojure   Clojure   Clojure</text>
</g>
</defs>
<use x="60" y="27" xlink:href="#backgroundText"/>
<rect x="58" y="24" width="452" height="288" fill="white" mask="url(#fade)" />
<rect x="58" y="264" width="452" height="288" style="fill: white; stroke: white;" />
<g style="fill: black; stroke: black;">
<rect x="72" y="249.74" width="1" height="14.26" />
<rect x="97" y="216.87" width="1" height="47.13" />
<rect x="122" y="225.75" width="1" height="35.11" />
<rect x="147" y="227.96" width="1" height="35.9" />
<rect x="172" y="186.48" width="1" height="77.52" />
<rect x="197" y="708.61" width="1" height="0" />
<rect x="222" y="208.78" width="1" height="39.58" />
<rect x="247" y="197.38" width="1" height="57.49" />
<rect x="272" y="201.05" width="1" height="59.63" />
<rect x="297" y="191.08" width="1" height="70.14" />
<rect x="322" y="186.49" width="1" height="77.51" />
<rect x="347" y="196.41" width="1" height="41.3" />
<rect x="372" y="188.69" width="1" height="50.72" />
<rect x="397" y="188.81" width="1" height="50.08" />
<rect x="422" y="185.58" width="1" height="51.77" />
<rect x="447" y="191.96" width="1" height="52.46" />
<rect x="472" y="176.48" width="1" height="85.89" />
<rect x="497" y="176.06" width="1" height="55.07" />
</g>
<g style="fill: white; stroke: black;">
<rect x="62" y="257.65" width="20" height="6.35" />
<rect x="87" y="229.95" width="20" height="28.8" />
<rect x="112" y="237.81" width="20" height="13.03" />
<rect x="137" y="240.66" width="20" height="11.6" />
<rect x="162" y="214.78" width="20" height="49.22" />
<rect x="187" y="708.61" width="20" height="0" />
<rect x="212" y="223.51" width="20" height="14.3" />
<rect x="237" y="216.23" width="20" height="21" />
<rect x="262" y="220.75" width="20" height="22.64" />
<rect x="287" y="209.69" width="20" height="20.57" />
<rect x="312" y="188.93" width="20" height="44.73" />
<rect x="337" y="211.72" width="20" height="15.15" />
<rect x="362" y="209.52" width="20" height="25" />
<rect x="387" y="206.49" width="20" height="18.91" />
<rect x="412" y="206.93" width="20" height="26.15" />
<rect x="437" y="211.8" width="20" height="22.93" />
<rect x="462" y="189.2" width="20" height="29.16" />
<rect x="487" y="196.29" width="20" height="23.71" />
</g>
<g style="fill: black; stroke: black;">
<line x1="67.5" y1="264" x2="77" y2="264" />
<line x1="67.5" y1="249.74" x2="77" y2="249.74" />
<line x1="67.5" y1="233.56" x2="77" y2="233.56" />
<rect x="72" y="233.56" width="1" height="5" />
</g>
<g style="fill: black; stroke: black;">
<rect x="63" y="262.5" width="18" height="1" />
</g>
<g style="fill: black; stroke: black;">
<line x1="92.5" y1="264" x2="102" y2="264" />
<line x1="92.5" y1="216.87" x2="102" y2="216.87" />
</g>
<g style="fill: black; stroke: black;">
<rect x="88" y="248.9" width="18" height="1" />
</g>
<g style="fill: black; stroke: black;">
<line x1="117.5" y1="260.86" x2="127" y2="260.86" />
<line x1="117.5" y1="225.75" x2="127" y2="225.75" />
</g>
<g style="fill: black; stroke: black;">
<rect x="113" y="240.74" width="18" height="1" />
</g>
<g style="fill: black; stroke: black;">
<line x1="142.5" y1="263.86" x2="152" y2="263.86" />
<line x1="142.5" y1="227.96" x2="152" y2="227.96" />
<line x1="142.5" y1="191.69" x2="152" y2="191.69" />
<rect x="147" y="191.69" width="1" height="5" />
</g>
<g style="fill: black; stroke: black;">
<rect x="138" y="244.58" width="18" height="1" />
</g>
<g style="fill: black; stroke: black;">
<line x1="167.5" y1="264" x2="177" y2="264" />
<line x1="167.5" y1="186.48" x2="177" y2="186.48" />
<line x1="167.5" y1="186.18" x2="177" y2="186.18" />
<rect x="172" y="186.18" width="1" height="5" />
</g>
<g style="fill: black; stroke: black;">
<rect x="163" y="240.61" width="18" height="1" />
</g>
<g style="fill: black; stroke: black;">
<line x1="192.5" y1="708.61" x2="202" y2="708.61" />
<line x1="192.5" y1="708.61" x2="202" y2="708.61" />
</g>
<g style="fill: black; stroke: black;">
<rect x="188" y="707.61" width="18" height="1" />
</g>
<g style="fill: black; stroke: black;">
<line x1="217.5" y1="248.36" x2="227" y2="248.36" />
<line x1="217.5" y1="208.78" x2="227" y2="208.78" />
<line x1="217.5" y1="205.72" x2="227" y2="205.72" />
<rect x="222" y="205.72" width="1" height="5" />
</g>
<g style="fill: black; stroke: black;">
<rect x="213" y="229.48" width="18" height="1" />
</g>
<g style="fill: black; stroke: black;">
<line x1="242.5" y1="254.87" x2="252" y2="254.87" />
<line x1="242.5" y1="197.38" x2="252" y2="197.38" />
<line x1="242.5" y1="168.14" x2="252" y2="168.14" />
<rect x="247" y="168.14" width="1" height="5" />
</g>
<g style="fill: black; stroke: black;">
<rect x="238" y="225.54" width="18" height="1" />
</g>
<g style="fill: black; stroke: black;">
<line x1="267.5" y1="260.68" x2="277" y2="260.68" />
<line x1="267.5" y1="201.05" x2="277" y2="201.05" />
<line x1="267.5" y1="121.98" x2="277" y2="121.98" />
<rect x="272" y="121.98" width="1" height="5" />
</g>
<g style="fill: black; stroke: black;">
<rect x="263" y="236" width="18" height="1" />
</g>
<g style="fill: black; stroke: black;">
<line x1="292.5" y1="261.21" x2="302" y2="261.21" />
<line x1="292.5" y1="191.08" x2="302" y2="191.08" />
<line x1="292.5" y1="180.57" x2="302" y2="180.57" />
<rect x="297" y="180.57" width="1" height="5" />
</g>
<g style="fill: black; stroke: black;">
<rect x="288" y="218.31" width="18" height="1" />
</g>
<g style="fill: black; stroke: black;">
<line x1="317.5" y1="264" x2="327" y2="264" />
<line x1="317.5" y1="186.49" x2="327" y2="186.49" />
</g>
<g style="fill: black; stroke: black;">
<rect x="313" y="218.9" width="18" height="1" />
</g>
<g style="fill: black; stroke: black;">
<line x1="342.5" y1="237.71" x2="352" y2="237.71" />
<line x1="342.5" y1="196.41" x2="352" y2="196.41" />
<line x1="342.5" y1="181.72" x2="352" y2="181.72" />
<rect x="347" y="181.72" width="1" height="5" />
</g>
<g style="fill: black; stroke: black;">
<rect x="338" y="218.37" width="18" height="1" />
</g>
<g style="fill: black; stroke: black;">
<line x1="367.5" y1="239.41" x2="377" y2="239.41" />
<line x1="367.5" y1="188.69" x2="377" y2="188.69" />
<line x1="367.5" y1="128.63" x2="377" y2="128.63" />
<rect x="372" y="128.63" width="1" height="5" />
</g>
<g style="fill: black; stroke: black;">
<rect x="363" y="225.91" width="18" height="1" />
</g>
<g style="fill: black; stroke: black;">
<line x1="392.5" y1="238.88" x2="402" y2="238.88" />
<line x1="392.5" y1="188.81" x2="402" y2="188.81" />
<line x1="392.5" y1="175.61" x2="402" y2="175.61" />
<rect x="397" y="175.61" width="1" height="5" />
</g>
<g style="fill: black; stroke: black;">
<rect x="388" y="219.27" width="18" height="1" />
</g>
<g style="fill: black; stroke: black;">
<line x1="417.5" y1="237.35" x2="427" y2="237.35" />
<line x1="417.5" y1="185.58" x2="427" y2="185.58" />
<line x1="417.5" y1="154.07" x2="427" y2="154.07" />
<rect x="422" y="154.07" width="1" height="5" />
</g>
<g style="fill: black; stroke: black;">
<rect x="413" y="213.21" width="18" height="1" />
</g>
<g style="fill: black; stroke: black;">
<line x1="442.5" y1="244.41" x2="452" y2="244.41" />
<line x1="442.5" y1="191.96" x2="452" y2="191.96" />
<line x1="442.5" y1="125.53" x2="452" y2="125.53" />
<rect x="447" y="125.53" width="1" height="5" />
</g>
<g style="fill: black; stroke: black;">
<rect x="438" y="218.89" width="18" height="1" />
</g>
<g style="fill: black; stroke: black;">
<line x1="467.5" y1="262.36" x2="477" y2="262.36" />
<line x1="467.5" y1="176.48" x2="477" y2="176.48" />
</g>
<g style="fill: black; stroke: black;">
<rect x="463" y="211.58" width="18" height="1" />
</g>
<g style="fill: black; stroke: black;">
<line x1="492.5" y1="231.14" x2="502" y2="231.14" />
<line x1="492.5" y1="176.06" x2="502" y2="176.06" />
<line x1="492.5" y1="171.18" x2="502" y2="171.18" />
<rect x="497" y="171.18" width="1" height="5" />
</g>
<g style="fill: black; stroke: black;">
<rect x="488" y="208.17" width="18" height="1" />
</g>
<g style="text-anchor: end; font-family: Ubuntu,Verdana,sans-serif; font-size: 0.9em;" >
<text x="512" y="282" >16 Feb 2017 u64q</text>
<text x="58" y="282" style="text-anchor: start;" >benchmarks game</text>
</g>
<text x="16" y="144" transform="rotate(270,16,144)" style="text-anchor: middle; font-family: Ubuntu,Verdana,sans-serif; font-size: 0.9em;" >program cpu / lowest program cpu</text>
<text x="285" y="18" style="text-anchor: middle; font-family: Ubuntu,Verdana,sans-serif; font-size: 1.2em;" >How many times more CPU?</text>
<g style="stroke: #333;">
<line x1="58" y1="24" x2="58" y2="264" />
<line x1="511" y1="24" x2="511" y2="264" />
<line x1="58" y1="264" x2="511" y2="264" />
</g>
</svg>

