<?xml version="1.0" encoding="UTF-8" standalone="no"?>
<!DOCTYPE svg PUBLIC "-//W3C//DTD SVG 1.1//EN" "http://www.w3.org/Graphics/SVG/1.1/DTD/svg11.dtd">
<svg xmlns="http://www.w3.org/2000/svg" version="1.1" xmlns:xlink="http://www.w3.org/1999/xlink" viewBox="0 0 512 288">

<!-- Copyright 2015 Isaac Gouy -->
<!-- http://benchmarksgame.alioth.debian.org/license.html -->

<g style="stroke: #ccc;" >
<line x1="51" y1="264" x2="511" y2="264" />
<line x1="51" y1="221.57" x2="511" y2="221.57" />
<line x1="51" y1="201.85" x2="511" y2="201.85" />
<line x1="51" y1="175.08" x2="511" y2="175.08" />
<line x1="51" y1="132.65" x2="511" y2="132.65" />
<line x1="51" y1="112.92" x2="511" y2="112.92" />
<line x1="51" y1="86.15" x2="511" y2="86.15" />
<line x1="51" y1="43.73" x2="511" y2="43.73" />
<line x1="51" y1="24" x2="511" y2="24" />
</g>
<g style="text-anchor: end; font-family: Ubuntu,Verdana,sans-serif; font-size: 0.9em;" >
<text x="51" y="262" >1</text>
<text x="51" y="219.57" >3</text>
<text x="51" y="199.85" >5</text>
<text x="51" y="173.08" >10</text>
<text x="51" y="130.65" >30</text>
<text x="51" y="110.92" >50</text>
<text x="51" y="84.15" >100</text>
<text x="51" y="41.73" >300</text>
<text x="51" y="22" ></text>
</g>
<defs>
<linearGradient id="grade" x1="0" y1="0" x2="0" y2="1">
<stop offset="0" style="stop-color: white" stop-opacity="0.6"/>
<stop offset="1" style="stop-color: white" stop-opacity="0.8"/>
</linearGradient>
<mask id="fade">
<rect x="58" y="24" width="452" height="288" fill="url(#grade)"  />
</mask>
<g id="backgroundText" style="text-anchor: end; font-family: Ubuntu,Verdana,sans-serif; font-size: 1em;">
<text x="15" y="0" transform="rotate(270,15,0)" xml:space="preserve">   C gcc   C gcc   C gcc   C gcc   C gcc   C gcc   C gcc</text>
<text x="40" y="0" transform="rotate(270,40,0)" xml:space="preserve">Rust   Rust   Rust   Rust   Rust   Rust   Rust   Rust   Rust</text>
<text x="65" y="0" transform="rotate(270,65,0)" xml:space="preserve">   C++ g++   C++ g++   C++ g++   C++ g++   C++ g++   C++ g++</text>
<text x="90" y="0" transform="rotate(270,90,0)" xml:space="preserve">da 2005 GNAT   Ada 2005 GNAT   Ada 2005 GNAT   Ada 2005 GNAT</text>
<text x="115" y="0" transform="rotate(270,115,0)" xml:space="preserve">Java   Java   Java   Java   Java   Java   Java   Java   Java</text>
<text x="140" y="0" transform="rotate(270,140,0)" xml:space="preserve">   Go   Go   Go   Go   Go   Go   Go   Go   Go   Go   Go   Go</text>
<text x="165" y="0" transform="rotate(270,165,0)" xml:space="preserve">ortran Intel   Fortran Intel   Fortran Intel   Fortran Intel</text>
<text x="190" y="0" transform="rotate(270,190,0)" xml:space="preserve">   Swift   Swift   Swift   Swift   Swift   Swift   Swift</text>
<text x="215" y="0" transform="rotate(270,215,0)" xml:space="preserve">   Chapel   Chapel   Chapel   Chapel   Chapel   Chapel</text>
<text x="240" y="0" transform="rotate(270,240,0)" xml:space="preserve">   C# .NET Core   C# .NET Core   C# .NET Core   C# .NET Core</text>
<text x="265" y="0" transform="rotate(270,265,0)" xml:space="preserve">   OCaml   OCaml   OCaml   OCaml   OCaml   OCaml   OCaml</text>
<text x="290" y="0" transform="rotate(270,290,0)" xml:space="preserve">   Scala   Scala   Scala   Scala   Scala   Scala   Scala</text>
<text x="315" y="0" transform="rotate(270,315,0)" xml:space="preserve">   Clojure   Clojure   Clojure   Clojure   Clojure   Clojure</text>
<text x="340" y="0" transform="rotate(270,340,0)" xml:space="preserve">   F# .NET Core   F# .NET Core   F# .NET Core   F# .NET Core</text>
<text x="365" y="0" transform="rotate(270,365,0)" xml:space="preserve">   Haskell GHC   Haskell GHC   Haskell GHC   Haskell GHC</text>
<text x="390" y="0" transform="rotate(270,390,0)" xml:space="preserve">Pascal Free Pascal   Pascal Free Pascal   Pascal Free Pascal</text>
<text x="415" y="0" transform="rotate(270,415,0)" xml:space="preserve">   Lisp SBCL   Lisp SBCL   Lisp SBCL   Lisp SBCL   Lisp SBCL</text>
</g>
</defs>
<use x="60" y="27" xlink:href="#backgroundText"/>
<rect x="58" y="24" width="452" height="288" fill="white" mask="url(#fade)" />
<rect x="58" y="264" width="452" height="288" style="fill: white; stroke: white;" />
<g style="fill: black; stroke: black;">
<rect x="72" y="256.92" width="1" height="7.08" />
<rect x="97" y="232.01" width="1" height="31.99" />
<rect x="122" y="216.88" width="1" height="46.58" />
<rect x="147" y="213.21" width="1" height="50.26" />
<rect x="172" y="214.56" width="1" height="41.08" />
<rect x="197" y="205.63" width="1" height="52.51" />
<rect x="222" y="163.63" width="1" height="100.37" />
<rect x="247" y="200.65" width="1" height="59.9" />
<rect x="272" y="186.52" width="1" height="77.48" />
<rect x="297" y="184.58" width="1" height="58.79" />
<rect x="322" y="187.16" width="1" height="54.57" />
<rect x="347" y="192.76" width="1" height="47.41" />
<rect x="372" y="192.36" width="1" height="41.4" />
<rect x="397" y="163.79" width="1" height="75.37" />
<rect x="422" y="169.93" width="1" height="69.8" />
<rect x="447" y="169.28" width="1" height="91.82" />
<rect x="472" y="171.43" width="1" height="69.53" />
</g>
<g style="fill: white; stroke: black;">
<rect x="62" y="261.01" width="20" height="2.99" />
<rect x="87" y="242.35" width="20" height="18.06" />
<rect x="112" y="236.86" width="20" height="23.22" />
<rect x="137" y="224.18" width="20" height="32.15" />
<rect x="162" y="226.04" width="20" height="13.02" />
<rect x="187" y="225.82" width="20" height="23.64" />
<rect x="212" y="188.89" width="20" height="68.49" />
<rect x="237" y="220.76" width="20" height="23.48" />
<rect x="262" y="203.01" width="20" height="46.35" />
<rect x="287" y="207.21" width="20" height="29.24" />
<rect x="312" y="207.92" width="20" height="24.84" />
<rect x="337" y="205.16" width="20" height="17.15" />
<rect x="362" y="203.55" width="20" height="14.95" />
<rect x="387" y="188.21" width="20" height="34.23" />
<rect x="412" y="191.78" width="20" height="29.57" />
<rect x="437" y="181.23" width="20" height="49.99" />
<rect x="462" y="187.87" width="20" height="29.33" />
</g>
<g style="fill: black; stroke: black;">
<line x1="67.5" y1="264" x2="77" y2="264" />
<line x1="67.5" y1="256.92" x2="77" y2="256.92" />
<line x1="67.5" y1="255.05" x2="77" y2="255.05" />
<rect x="72" y="255.05" width="1" height="5" />
</g>
<g style="fill: black; stroke: black;">
<rect x="63" y="263" width="18" height="1" />
</g>
<g style="fill: black; stroke: black;">
<line x1="92.5" y1="264" x2="102" y2="264" />
<line x1="92.5" y1="232.01" x2="102" y2="232.01" />
</g>
<g style="fill: black; stroke: black;">
<rect x="88" y="248.42" width="18" height="1" />
</g>
<g style="fill: black; stroke: black;">
<line x1="117.5" y1="263.46" x2="127" y2="263.46" />
<line x1="117.5" y1="216.88" x2="127" y2="216.88" />
<line x1="117.5" y1="215.03" x2="127" y2="215.03" />
<rect x="122" y="215.03" width="1" height="5" />
</g>
<g style="fill: black; stroke: black;">
<rect x="113" y="252.71" width="18" height="1" />
</g>
<g style="fill: black; stroke: black;">
<line x1="142.5" y1="263.48" x2="152" y2="263.48" />
<line x1="142.5" y1="213.21" x2="152" y2="213.21" />
</g>
<g style="fill: black; stroke: black;">
<rect x="138" y="241.62" width="18" height="1" />
</g>
<g style="fill: black; stroke: black;">
<line x1="167.5" y1="255.64" x2="177" y2="255.64" />
<line x1="167.5" y1="214.56" x2="177" y2="214.56" />
</g>
<g style="fill: black; stroke: black;">
<rect x="163" y="232.81" width="18" height="1" />
</g>
<g style="fill: black; stroke: black;">
<line x1="192.5" y1="258.14" x2="202" y2="258.14" />
<line x1="192.5" y1="205.63" x2="202" y2="205.63" />
<line x1="192.5" y1="167.74" x2="202" y2="167.74" />
<rect x="197" y="167.74" width="1" height="5" />
</g>
<g style="fill: black; stroke: black;">
<rect x="188" y="238.87" width="18" height="1" />
</g>
<g style="fill: black; stroke: black;">
<line x1="217.5" y1="264" x2="227" y2="264" />
<line x1="217.5" y1="163.63" x2="227" y2="163.63" />
</g>
<g style="fill: black; stroke: black;">
<rect x="213" y="239.58" width="18" height="1" />
</g>
<g style="fill: black; stroke: black;">
<line x1="242.5" y1="260.55" x2="252" y2="260.55" />
<line x1="242.5" y1="200.65" x2="252" y2="200.65" />
<line x1="242.5" y1="110.66" x2="252" y2="110.66" />
<rect x="247" y="110.66" width="1" height="5" />
</g>
<g style="fill: black; stroke: black;">
<rect x="238" y="236.2" width="18" height="1" />
</g>
<g style="fill: black; stroke: black;">
<line x1="267.5" y1="264" x2="277" y2="264" />
<line x1="267.5" y1="186.52" x2="277" y2="186.52" />
</g>
<g style="fill: black; stroke: black;">
<rect x="263" y="217.83" width="18" height="1" />
</g>
<g style="fill: black; stroke: black;">
<line x1="292.5" y1="243.38" x2="302" y2="243.38" />
<line x1="292.5" y1="184.58" x2="302" y2="184.58" />
<line x1="292.5" y1="169.08" x2="302" y2="169.08" />
<rect x="297" y="169.08" width="1" height="5" />
</g>
<g style="fill: black; stroke: black;">
<rect x="288" y="229.55" width="18" height="1" />
</g>
<g style="fill: black; stroke: black;">
<line x1="317.5" y1="241.73" x2="327" y2="241.73" />
<line x1="317.5" y1="187.16" x2="327" y2="187.16" />
<line x1="317.5" y1="181.72" x2="327" y2="181.72" />
<rect x="322" y="181.72" width="1" height="5" />
</g>
<g style="fill: black; stroke: black;">
<rect x="313" y="219.82" width="18" height="1" />
</g>
<g style="fill: black; stroke: black;">
<line x1="342.5" y1="240.17" x2="352" y2="240.17" />
<line x1="342.5" y1="192.76" x2="352" y2="192.76" />
</g>
<g style="fill: black; stroke: black;">
<rect x="338" y="208.1" width="18" height="1" />
</g>
<g style="fill: black; stroke: black;">
<line x1="367.5" y1="233.76" x2="377" y2="233.76" />
<line x1="367.5" y1="192.36" x2="377" y2="192.36" />
</g>
<g style="fill: black; stroke: black;">
<rect x="363" y="205.98" width="18" height="1" />
</g>
<g style="fill: black; stroke: black;">
<line x1="392.5" y1="239.16" x2="402" y2="239.16" />
<line x1="392.5" y1="163.79" x2="402" y2="163.79" />
<line x1="392.5" y1="160.9" x2="402" y2="160.9" />
<rect x="397" y="160.9" width="1" height="5" />
</g>
<g style="fill: black; stroke: black;">
<rect x="388" y="219.02" width="18" height="1" />
</g>
<g style="fill: black; stroke: black;">
<line x1="417.5" y1="239.73" x2="427" y2="239.73" />
<line x1="417.5" y1="169.93" x2="427" y2="169.93" />
</g>
<g style="fill: black; stroke: black;">
<rect x="413" y="196.32" width="18" height="1" />
</g>
<g style="fill: black; stroke: black;">
<line x1="442.5" y1="261.1" x2="452" y2="261.1" />
<line x1="442.5" y1="169.28" x2="452" y2="169.28" />
</g>
<g style="fill: black; stroke: black;">
<rect x="438" y="191.14" width="18" height="1" />
</g>
<g style="fill: black; stroke: black;">
<line x1="467.5" y1="240.97" x2="477" y2="240.97" />
<line x1="467.5" y1="171.43" x2="477" y2="171.43" />
</g>
<g style="fill: black; stroke: black;">
<rect x="463" y="198.2" width="18" height="1" />
</g>
<g style="text-anchor: end; font-family: Ubuntu,Verdana,sans-serif; font-size: 0.9em;" >
<text x="512" y="282" >16 Feb 2017 u64q</text>
<text x="58" y="282" style="text-anchor: start;" >benchmarks game</text>
</g>
<text x="16" y="144" transform="rotate(270,16,144)" style="text-anchor: middle; font-family: Ubuntu,Verdana,sans-serif; font-size: 0.9em;" >program time / fastest program time</text>
<text x="285" y="18" style="text-anchor: middle; font-family: Ubuntu,Verdana,sans-serif; font-size: 1.2em;" >How many times slower?</text>
<g style="stroke: #333;">
<line x1="58" y1="24" x2="58" y2="264" />
<line x1="511" y1="24" x2="511" y2="264" />
<line x1="58" y1="264" x2="511" y2="264" />
</g>
</svg>

